<svg xmlns="http://www.w3.org/2000/svg" viewBox="0 0 32 32">
  <rect width="32" height="32" rx="8" fill="#1c7d4d"/>
  <svg x="7" y="7" width="18" height="18" viewBox="5 2 14 14" fill="#bdf04a" fill-rule="evenodd">
    <path d="M11.1 9.7 Q6.4 7.8 6 2.9 Q10.4 4.4 11.1 9.7 Z M11.5 9.7 Q11.5 4.6 14.3 2.7 Q15.6 6.4 11.5 9.7 Z M10.1 11 Q14.3 10.1 17.9 13.5 Q13.6 15.1 10.1 11 Z M10.6 9.2 Q8 7.2 6.7 3.5 Q9 6 10.6 9.2 Z M11.9 9.2 Q12 5.1 14 3.3 Q12.7 5.9 11.9 9.2 Z M10.8 11.1 Q14.2 10.8 17 13.2 Q14.2 12.4 10.8 11.1 Z"/>
  </svg>
</svg>
